Coordinates
version=1
nRows=17
nColumns=63
inDegrees=yes

Units are S.I. units (second, meters, Newtons, ...)
If the header above contains a line with 'inDegrees', this indicates whether rotational values are in degrees (yes) or radians (no).

endheader
time	pelvis_tilt	pelvis_list	pelvis_rotation	pelvis_tx	pelvis_ty	pelvis_tz	hip_flexion_r	hip_adduction_r	hip_rotation_r	knee_angle_r	knee_angle_r_beta	ankle_angle_r	subtalar_angle_r	mtp_angle_r	hip_flexion_l	hip_adduction_l	hip_rotation_l	knee_angle_l	knee_angle_l_beta	ankle_angle_l	subtalar_angle_l	mtp_angle_l	L5_S1_Flex_Ext	L5_S1_Lat_Bending	L5_S1_axial_rotation	L4_L5_Flex_Ext	L4_L5_Lat_Bending	L4_L5_axial_rotation	L3_L4_Flex_Ext	L3_L4_Lat_Bending	L3_L4_axial_rotation	L2_L3_Flex_Ext	L2_L3_Lat_Bending	L2_L3_axial_rotation	L1_L2_Flex_Ext	L1_L2_Lat_Bending	L1_L2_axial_rotation	L1_T12_Flex_Ext	L1_T12_Lat_Bending	L1_T12_axial_rotation	Abs_r3	Abs_r2	Abs_r1	Abs_t1	Abs_t2	neck_flexion	neck_bending	neck_rotation	arm_flex_r	arm_add_r	arm_rot_r	elbow_flex_r	pro_sup_r	wrist_flex_r	wrist_dev_r	arm_flex_l	arm_add_l	arm_rot_l	elbow_flex_l	pro_sup_l	wrist_flex_l	wrist_dev_l
9.101695	2.315501	-10.757053	91.186084	0.206804	0.692546	0.867273	19.510930	0.321637	16.890553	2.652989	0.046303	25.490863	-13.224111	0.000000	23.074412	-1.526982	-6.818536	12.699171	0.221642	35.157365	8.725526	0.000000	0.057536	-0.044570	-1.158000	0.106851	-0.059278	-1.230375	0.094526	-0.108366	-1.230375	0.065758	-0.108366	-1.013250	0.053428	-0.090886	-0.940875	0.032876	-0.069038	-0.868500	0.410976	-0.504180	-6.440447	0.000000	0.000000	16.972836	2.109583	1.574164	5.996526	-10.256187	5.201030	88.127709	87.963865	-3.790447	22.963675	17.407241	-5.512044	14.563092	74.430262	87.441664	-6.115427	14.545743
9.118644	2.315012	-10.358084	91.214542	0.207328	0.694018	0.867671	19.216397	0.346168	16.453132	2.819675	0.049213	25.573328	-12.465461	0.000000	22.653136	-1.579326	-7.160540	12.611949	0.220120	35.072642	9.117741	0.000000	0.050990	-0.063333	-1.154335	0.094694	-0.084232	-1.226480	0.083772	-0.153987	-1.226480	0.058277	-0.153987	-1.010043	0.047349	-0.129148	-0.937897	0.029136	-0.098102	-0.865751	0.364217	-0.716431	-6.420062	0.000000	0.000000	16.388396	2.074394	1.263679	8.267445	-10.862820	4.620249	90.350341	88.105503	-5.253366	21.958560	17.855469	-6.249046	12.473495	77.996516	88.142110	-8.115255	13.473936
9.135593	2.326735	-9.921857	91.243310	0.207712	0.695603	0.868038	18.891550	0.372786	15.877068	3.018216	0.052678	25.690671	-11.533145	0.000000	22.191426	-1.640617	-7.479356	12.530902	0.218705	34.986148	9.514296	0.000000	0.044167	-0.078462	-1.138609	0.082022	-0.104354	-1.209772	0.072561	-0.190772	-1.209772	0.050478	-0.190772	-0.996283	0.041013	-0.159999	-0.925120	0.025237	-0.121537	-0.853957	0.315478	-0.887575	-6.332603	0.000000	0.000000	15.748450	1.994266	0.908206	11.009655	-11.689860	3.933668	92.742874	88.248516	-6.847561	20.690305	18.761955	-7.077212	10.391564	81.691279	88.608936	-10.055311	12.162084
9.152542	2.325467	-9.456211	91.219989	0.208024	0.697277	0.868344	18.548787	0.396859	15.218377	3.250685	0.056735	25.849583	-10.452375	0.000000	21.677958	-1.700786	-7.773664	12.430634	0.216955	34.879251	9.855851	0.000000	0.039654	-0.093398	-1.100178	0.073641	-0.124220	-1.168939	0.065147	-0.227089	-1.168939	0.045320	-0.227089	-0.962656	0.036822	-0.190458	-0.893894	0.022658	-0.144674	-0.825133	0.283242	-1.056542	-6.118859	0.000000	0.000000	15.083111	1.864833	0.464169	14.168271	-12.737595	3.146834	95.268095	88.401924	-8.624389	19.215167	20.144099	-7.972478	8.371088	85.419513	88.866724	-11.900516	10.556617
9.169492	2.347003	-8.933222	91.213768	0.208149	0.699058	0.868662	18.146305	0.429533	14.448548	3.499465	0.061077	26.014302	-9.311490	0.000000	21.110675	-1.770183	-7.980276	12.349150	0.215533	34.753563	10.144208	0.000000	0.030411	-0.103107	-1.055794	0.056475	-0.137132	-1.121781	0.049961	-0.250694	-1.121781	0.034756	-0.250694	-0.923819	0.028239	-0.210255	-0.857832	0.017377	-0.159712	-0.791845	0.217220	-1.166364	-5.872007	0.000000	0.000000	14.490310	1.719623	0.072956	17.754666	-14.007374	2.291099	97.841139	88.571330	-10.393599	17.659360	22.026055	-8.918751	6.438083	89.109685	88.881725	-13.606698	8.780138
9.186441	2.365488	-8.379490	91.179309	0.208190	0.700894	0.868942	17.709986	0.463313	13.626786	3.764703	0.065706	26.188161	-8.141537	0.000000	20.496140	-1.840231	-8.115431	12.257280	0.213930	34.597120	10.361505	0.000000	0.023107	-0.111409	-0.995533	0.042912	-0.148173	-1.057754	0.037963	-0.270879	-1.057754	0.026409	-0.270879	-0.871091	0.021457	-0.227184	-0.808870	0.013203	-0.172572	-0.746650	0.165052	-1.260276	-5.536855	0.000000	0.000000	13.955079	1.529975	-0.331346	21.672254	-15.469025	1.405744	100.391277	88.749330	-12.171836	16.116664	24.381119	-9.913994	4.641193	92.651095	88.652972	-15.071885	6.825090
9.203390	2.360605	-7.781672	91.134643	0.208182	0.702765	0.869244	17.227302	0.475121	12.758959	4.048759	0.070664	26.357305	-7.009461	0.000000	19.830560	-1.884579	-8.173070	12.167201	0.212358	34.394480	10.495737	0.000000	0.010597	-0.121439	-0.923125	0.019680	-0.161514	-0.980820	0.017410	-0.295267	-0.980820	0.012112	-0.295267	-0.807734	0.009841	-0.247638	-0.750039	0.006055	-0.188109	-0.692344	0.075694	-1.373741	-5.134145	0.000000	0.000000	13.645399	1.373236	-0.732367	25.830997	-17.018596	0.465603	102.859483	88.911547	-13.874363	14.632093	27.175297	-10.961928	2.970417	95.993585	88.196611	-16.243689	4.739999
9.220339	2.324778	-7.157987	91.105787	0.208150	0.704634	0.869552	16.702139	0.451464	11.905996	4.328165	0.075541	26.503713	-6.008830	0.000000	19.132438	-1.891553	-8.162116	12.076278	0.210771	34.150162	10.600788	0.000000	-0.004047	-0.135913	-0.844982	-0.007516	-0.180764	-0.897793	-0.006649	-0.330459	-0.897793	-0.004626	-0.330459	-0.739359	-0.003758	-0.277154	-0.686548	-0.002313	-0.210529	-0.633737	-0.028910	-1.537476	-4.699536	0.000000	0.000000	13.545584	1.288214	-1.199444	30.144680	-18.619709	-0.501139	105.123348	89.037057	-15.320010	13.292808	30.387351	-12.065299	1.514209	99.007812	87.819621	-17.322141	2.493969
9.237288	2.264283	-6.522597	91.067148	0.208128	0.706456	0.869877	16.155075	0.402734	11.070308	4.605093	0.080374	26.632448	-5.112612	0.000000	18.413944	-1.869465	-8.068155	11.981692	0.209120	33.864648	10.612169	0.000000	-0.020005	-0.152412	-0.760915	-0.037151	-0.202707	-0.808472	-0.032866	-0.370574	-0.808472	-0.022864	-0.370574	-0.665800	-0.018577	-0.310798	-0.618243	-0.011431	-0.236086	-0.570686	-0.142894	-1.724111	-4.231979	0.000000	0.000000	13.668093	1.253224	-1.648557	34.525962	-20.171696	-1.423834	107.052218	89.085601	-16.616849	11.920335	33.981626	-13.221736	0.232940	101.569371	87.484124	-18.005181	0.338038
9.254237	2.175252	-5.890233	90.998601	0.208161	0.708191	0.870210	15.595849	0.333220	10.406512	4.858261	0.084793	26.712187	-4.486622	0.000000	17.686525	-1.817014	-7.917412	11.880900	0.207361	33.548197	10.532506	0.000000	-0.036368	-0.171622	-0.668403	-0.067539	-0.228258	-0.710178	-0.059749	-0.417283	-0.710178	-0.041565	-0.417283	-0.584852	-0.033771	-0.349972	-0.543077	-0.020781	-0.265843	-0.501302	-0.259773	-1.941427	-3.717455	0.000000	0.000000	14.011163	1.289870	-2.100651	38.865535	-21.634795	-2.281832	108.593397	89.058379	-17.757070	10.519072	37.938693	-14.459651	-0.754589	103.584895	87.163489	-18.431844	-1.597485
9.271186	2.074889	-5.282753	90.900787	0.208211	0.709805	0.870555	15.060752	0.246094	9.707963	5.109850	0.089184	26.797203	-3.826660	0.000000	16.976684	-1.750071	-7.720577	11.782479	0.205643	33.212835	10.367243	0.000000	-0.051971	-0.190536	-0.567099	-0.096516	-0.253413	-0.602543	-0.085383	-0.463269	-0.602543	-0.059398	-0.463269	-0.496212	-0.048260	-0.388541	-0.460768	-0.029696	-0.295140	-0.425324	-0.371224	-2.155379	-3.154034	0.000000	0.000000	14.569433	1.379694	-2.560891	43.068276	-23.001575	-3.042187	109.745530	89.006859	-18.791151	9.138609	42.196243	-15.778330	-1.392782	105.017136	86.884568	-18.601171	-3.211843
9.288136	1.971958	-4.711067	90.762433	0.208271	0.711287	0.870876	14.547792	0.159643	9.153705	5.328848	0.093006	26.842681	-3.332294	0.000000	16.286613	-1.672896	-7.438321	11.672229	0.203719	32.849610	10.036582	0.000000	-0.067996	-0.207771	-0.456990	-0.126275	-0.276336	-0.485552	-0.111710	-0.505175	-0.485552	-0.077712	-0.505175	-0.399867	-0.063141	-0.423687	-0.371305	-0.038853	-0.321838	-0.342743	-0.485686	-2.350351	-2.541644	0.000000	0.000000	15.361119	1.537715	-3.020054	47.049454	-24.257923	-3.703080	110.530909	88.965993	-19.658749	7.841922	46.618560	-17.141190	-1.763431	105.913143	86.661284	-18.458210	-4.435667
9.305085	1.876009	-4.192670	90.570761	0.208321	0.712638	0.871127	14.085798	0.074939	8.574651	5.538060	0.096657	26.891834	-2.717956	0.000000	15.631952	-1.607617	-7.212971	11.557240	0.201712	32.487690	9.698724	0.000000	-0.082825	-0.222029	-0.338091	-0.153814	-0.295299	-0.359222	-0.136073	-0.539842	-0.359222	-0.094661	-0.539842	-0.295830	-0.076911	-0.452762	-0.274699	-0.047326	-0.343924	-0.253568	-0.591611	-2.511641	-1.880360	0.000000	0.000000	16.331559	1.771023	-3.470180	50.775495	-25.468082	-4.168725	110.996158	88.940664	-20.485946	6.824516	51.055044	-18.550415	-1.789935	106.364502	86.502726	-18.363032	-5.419627
9.322034	1.777328	-3.748100	90.335286	0.208385	0.713843	0.871257	13.686050	-0.013892	8.027462	5.721985	0.099867	26.938277	-2.040783	0.000000	15.029810	-1.541587	-7.013799	11.428136	0.199459	32.126869	9.311217	0.000000	-0.094467	-0.236073	-0.216170	-0.175435	-0.313977	-0.229680	-0.155201	-0.573988	-0.229680	-0.107967	-0.573988	-0.189149	-0.087722	-0.481400	-0.175638	-0.053979	-0.365677	-0.162127	-0.674771	-2.670505	-1.202271	0.000000	0.000000	17.456672	2.076221	-4.004401	54.211113	-26.580937	-4.472257	111.155128	88.929656	-21.165189	6.191027	55.308773	-19.959865	-1.654139	106.557769	86.403915	-18.117407	-6.064846
9.338983	1.670452	-3.367144	90.062971	0.208445	0.714932	0.871226	13.333601	-0.107283	7.576648	5.879797	0.102622	26.977755	-1.371630	0.000000	14.464274	-1.458589	-6.763652	11.268393	0.196671	31.752723	8.764457	0.000000	-0.103541	-0.249662	-0.109131	-0.192286	-0.332050	-0.115951	-0.170108	-0.607028	-0.115951	-0.118337	-0.607028	-0.095489	-0.096148	-0.509110	-0.088669	-0.059163	-0.386726	-0.081848	-0.739584	-2.824225	-0.606952	0.000000	0.000000	18.623599	2.480684	-4.462877	57.451905	-27.585860	-4.447669	110.976432	88.927921	-21.799881	6.090746	59.150170	-21.352550	-1.610698	106.749620	86.402310	-17.557002	-6.183173
9.355932	1.555638	-3.050739	89.756779	0.208542	0.715890	0.871073	13.037783	-0.210313	7.152721	6.019611	0.105062	27.029250	-0.608765	0.000000	13.949978	-1.375537	-6.664442	11.099982	0.193731	31.418620	8.324054	0.000000	-0.110018	-0.262720	-0.016405	-0.204314	-0.349417	-0.017430	-0.180748	-0.638777	-0.017430	-0.125739	-0.638777	-0.014354	-0.102163	-0.535738	-0.013329	-0.062864	-0.406953	-0.012304	-0.785847	-2.971938	-0.091238	0.000000	0.000000	19.786450	3.016595	-4.774662	60.492147	-28.465451	-4.117005	110.489469	88.923064	-22.366150	6.447421	62.480101	-22.690913	-1.710142	107.049047	86.499498	-16.808377	-5.921065
9.372881	1.430684	-2.785658	89.424377	0.208679	0.716711	0.870849	12.791222	-0.325756	6.748824	6.145064	0.107252	27.107585	0.256857	0.000000	13.482575	-1.286681	-6.701495	10.923938	0.190659	31.136951	7.968605	0.000000	-0.115267	-0.275000	0.067111	-0.214062	-0.365750	0.071305	-0.189372	-0.668635	0.071305	-0.131739	-0.668635	0.058722	-0.107037	-0.560780	0.054527	-0.065864	-0.425975	0.050333	-0.823341	-3.110855	0.373249	0.000000	0.000000	20.862513	3.651881	-4.956761	63.305960	-29.197234	-3.559474	109.758013	88.911180	-22.815301	7.129055	65.287867	-23.961774	-1.947807	107.487346	86.693645	-15.942916	-5.322863
